<svg id="Lager_1" data-name="Lager 1" xmlns="http://www.w3.org/2000/svg" viewBox="0 0 29.64 66.47"><defs><style>.cls-1,.cls-4{fill:#fff;stroke:#fff;}.cls-1,.cls-2,.cls-4{stroke-miterlimit:10;}.cls-2{fill:none;stroke:#1d1d1b;}.cls-3{fill:#1d1d1b;}.cls-4{font-size:47.24px;font-family:MissStephams, Miss Stephams;}</style></defs><path class="cls-1" d="M114.25,423.2a13.93,13.93,0,1,0,14.32,13.92A14.12,14.12,0,0,0,114.25,423.2Zm-.06,27.38a13.52,13.52,0,1,1,13.9-13.52A13.71,13.71,0,0,1,114.19,450.58Z" transform="translate(-99.43 -400.61)"/><path class="cls-2" d="M357,347" transform="translate(-99.43 -400.61)"/><path class="cls-3" d="M223.93,236.86" transform="translate(-99.43 -400.61)"/><path class="cls-1" d="M114.19,425.7a11.36,11.36,0,1,0,11.69,11.36A11.54,11.54,0,0,0,114.19,425.7Zm0,21.81A10.51,10.51,0,1,1,125,437,10.66,10.66,0,0,1,114.17,447.51Z" transform="translate(-99.43 -400.61)"/><text class="cls-4" transform="translate(4.86 40.65) scale(1.04 1)">n</text></svg>